<svg width="42" height="49" viewBox="0 0 42 49" fill="none"
  xmlns="http://www.w3.org/2000/svg">
  <path d="M35.3741 25.4581C35.3741 25.4581 38.2534 25.4581 38.2534 24.5C38.2534 23.5419 35.3741 23.5419 35.3741 23.5419C35.3741 23.5419 41.1326 19.0251 41.9553 17.5196C41.9553 17.5196 38.1163 16.1508 34.4143 21.2151C34.4143 21.2151 39.2131 8.62291 34.1401 0.958101C34.1401 0.958101 29.2042 6.84358 31.9464 20.6676C31.9464 20.6676 23.4456 3.01117 12.614 0C12.614 0 13.1625 14.0978 30.1639 22.4469C30.1639 22.4469 12.4769 13.5503 0.137115 24.5C12.4769 35.4497 30.1639 26.5531 30.1639 26.5531C13.1625 34.7654 12.614 49 12.614 49C23.4456 45.852 31.9464 28.3324 31.9464 28.3324C29.2042 42.2933 34.1401 48.0419 34.1401 48.0419C39.2131 40.2402 34.4143 27.7849 34.4143 27.7849C38.1163 32.986 41.9553 31.4804 41.9553 31.4804C41.1326 29.9749 35.3741 25.4581 35.3741 25.4581ZM17.8241 6.98045C21.8003 10.1285 27.0104 17.9302 27.0104 17.9302C23.1714 15.0559 17.8241 6.98045 17.8241 6.98045ZM3.97616 24.5C3.97616 24.5 20.4292 22.7207 28.3815 24.5C28.3815 24.5 12.3398 26.1425 3.97616 24.5ZM17.8241 42.0196C17.8241 42.0196 23.1714 33.9441 27.0104 31.0698C27.0104 31.0698 21.8003 38.8715 17.8241 42.0196ZM33.4546 42.7039C33.4546 42.7039 32.2206 34.6285 32.9061 30.2486C32.9061 30.3855 34.2772 38.5978 33.4546 42.7039ZM32.9061 18.067C32.2206 13.6872 33.4546 5.61173 33.4546 5.61173C34.2772 9.71788 32.9061 18.067 32.9061 18.067Z" fill="#4A9B57"/>
</svg>
