<svg width="184" height="49" viewBox="0 0 184 49" fill="none"
  xmlns="http://www.w3.org/2000/svg">
  <path d="M47.851 45.852C47.851 44.757 48.2623 44.2095 49.2221 44.2095C49.6334 44.2095 50.3189 44.3464 51.0045 44.6201C51.69 44.8938 52.3756 45.0307 52.924 45.0307C53.4724 45.0307 54.0209 44.757 54.7064 44.0726C55.392 43.3883 55.8033 42.567 56.2146 41.4721C56.9002 39.419 57.3115 37.5028 57.3115 35.8603C57.3115 34.2179 57.0373 32.4385 56.4888 30.5223C55.9404 28.6061 55.2549 26.8268 54.2951 25.1844C53.3353 23.5419 52.6498 21.8994 51.69 20.1201C49.6334 16.1508 48.6736 12.4553 48.6736 9.17039C48.6736 6.02235 49.6334 3.55866 51.69 1.9162C52.7869 0.9581 54.0209 0.547485 55.392 0.547485C56.0775 0.547485 56.7631 0.684357 57.4486 1.09497C58.1341 1.50559 58.5455 2.05307 58.8197 2.60056L57.7228 4.10614C56.763 4.10614 55.9404 3.96927 55.392 3.55866C54.7064 3.69553 54.0209 3.96927 53.4724 4.65363C52.5127 5.7486 51.9642 7.25419 51.9642 8.89665C51.9642 10.5391 52.2385 12.1816 52.6498 13.824C53.0611 15.4665 53.6095 16.8352 54.2951 18.067C54.9806 19.2989 55.6662 20.6676 56.3517 22.1732C57.1744 23.6788 57.8599 25.0475 58.4084 26.4162C59.9166 29.5642 60.6021 32.986 60.6021 36.6816C60.6021 39.2821 59.9166 41.7458 58.6826 44.0726C57.997 45.1676 57.1744 46.1257 56.0775 46.8101C54.9806 47.4944 53.8838 47.905 52.5127 47.905C51.0045 47.905 49.9076 47.6313 49.085 47.2207C48.2623 46.8101 47.851 46.3994 47.851 45.852Z" fill="white"/>
  <path d="M63.8927 22.4469L64.304 11.3603C64.304 9.581 64.9896 8.07541 66.4978 6.98044V7.39105C66.6349 7.25418 66.772 7.25418 66.9091 7.25418C67.8689 7.25418 68.9657 8.89664 70.4739 12.0447C71.845 15.3296 73.079 18.7514 74.313 22.5838C75.4098 26.4162 76.5067 30.3855 77.7407 34.2179C78.9747 38.0503 79.5231 40.3771 79.7973 41.0614C80.4829 32.7123 80.8942 22.5838 80.8942 10.8128L80.7571 9.17038C80.7571 7.93854 81.3055 7.39105 82.2653 7.39105C82.8137 7.39105 83.225 7.6648 83.4993 8.07541C83.7735 8.48603 83.9106 9.03351 83.9106 9.71787V14.2346C83.9106 18.8883 83.6364 25.1843 83.225 32.986C82.8137 40.7877 82.2653 45.1676 81.7168 46.2626C80.62 46.5363 79.9344 46.81 79.386 46.81C78.9747 46.81 78.7005 46.6732 78.4262 46.3994C78.152 46.1257 78.0149 45.7151 77.8778 45.1676C77.7407 44.6201 77.6036 44.2095 77.4665 43.9357V43.662C77.4665 42.1564 76.0954 37.5028 73.2161 29.5642C70.3368 21.6257 68.2802 16.1508 67.0462 13.2765V43.3883C67.0462 43.5251 67.1833 43.662 67.3204 43.7989C67.5946 44.2095 67.7318 44.6201 67.7318 45.0307C67.7318 45.4413 67.5946 45.7151 67.1833 46.1257C66.772 46.5363 66.3607 46.6732 65.9493 46.6732C64.5782 46.6732 64.0298 45.4413 64.0298 42.9776L63.8927 22.4469Z" fill="white"/>
  <path d="M101.323 34.4916L102.009 38.1871C102.009 38.7346 102.146 39.8296 102.557 41.7458C102.969 43.662 103.106 44.8938 103.106 45.4413C103.106 46.2626 102.832 46.9469 102.146 47.0838C101.323 47.0838 100.638 46.9469 100.227 46.6732C99.8152 46.3994 99.541 45.8519 99.541 45.0307C99.541 43.3883 99.2668 40.9246 98.7183 37.6397L92.8227 36.8184C92.4113 38.1871 92.1371 39.5559 92 41.1983C91.8629 42.8408 91.5887 43.9357 91.4516 44.6201C91.0402 46.1257 90.4918 46.81 89.5321 46.81C89.1207 46.81 88.5723 46.6732 88.2981 46.3994C87.8867 46.1257 87.7496 45.7151 87.7496 45.3045L87.8867 44.757C90.6289 34.3547 92.5484 24.3631 93.9195 14.5084C93.9195 14.2346 94.0566 13.4134 94.0566 12.1816C94.1937 9.30725 94.6051 7.39105 95.1535 6.56982H97.2101C97.7586 6.56982 98.1699 6.7067 98.5812 6.98044C98.9926 7.25418 99.1297 7.6648 99.1297 8.07541C99.1297 11.0866 99.541 15.6033 100.364 21.6257C100.912 27.5112 101.323 31.7542 101.323 34.4916ZM98.1699 35.5866C98.0328 35.0391 98.0328 33.9441 98.0328 32.5754C98.0328 31.0698 97.8957 29.2905 97.7586 27.2374C97.6215 25.0475 97.3473 22.5838 97.073 19.7095C96.7988 16.8352 96.5246 14.7821 96.3875 13.5503C94.6051 23.5419 93.3711 30.6592 92.8227 34.7654C93.6453 35.176 95.4277 35.4497 98.1699 35.5866Z" fill="white"/>
  <path d="M106.808 20.8045L106.945 15.0559C106.945 12.5922 106.808 10.8128 106.534 9.581C106.808 8.21228 107.356 7.52792 108.179 7.52792H110.784C113.115 7.52792 114.76 8.48602 115.583 10.4022C116.405 12.0447 116.817 14.0978 116.817 16.2877C116.817 19.0251 116.817 20.8045 116.68 21.3519C116.542 22.0363 116.405 22.5838 116.268 23.1313C116.131 23.6788 115.857 24.0894 115.72 24.5C115.446 24.9106 115.171 25.1844 114.897 25.595C114.486 26.0056 114.212 26.4162 113.663 26.6899C112.703 27.3743 111.469 27.9218 110.098 28.3324V34.7654L110.51 46.1257C110.51 46.6732 110.373 47.0838 109.961 47.3575C109.55 47.6313 109.139 47.905 108.59 47.905L107.356 47.2207C106.808 45.0307 106.671 42.1564 106.671 38.4609L106.945 27.7849C106.671 27.2374 106.534 26.8268 106.534 26.2793V26.1425C106.671 25.0475 106.808 23.405 106.808 20.8045ZM109.824 14.0978L109.961 25.7318V25.8687C112.292 25.595 113.526 22.1732 113.526 15.7402C113.526 13.824 113.252 12.5922 112.841 11.9078C112.292 11.2235 111.607 10.8128 110.51 10.8128C110.51 10.8128 110.235 10.676 109.824 10.676V14.0978V14.0978Z" fill="white"/>
  <path d="M134.641 11.9078L134.504 19.5726L135.052 33.2598L135.601 43.9358C135.601 45.852 135.052 46.8101 133.818 46.8101C133.133 46.8101 132.721 46.5363 132.31 45.852C132.036 45.1676 131.899 44.4832 131.899 43.7989L132.31 34.2179C132.31 32.1648 132.173 29.0168 131.899 24.9106C131.624 20.8045 131.487 17.6564 131.487 15.6034L131.624 10.5391C131.624 7.6648 131.487 5.88547 131.076 4.92737L127.785 5.20112C127.237 5.20112 126.826 5.06424 126.414 4.7905C126.003 4.51676 125.866 4.10614 125.866 3.55866C125.866 3.14804 126.277 2.73743 127.237 2.32681C128.197 1.9162 129.431 1.77933 130.802 1.50558C133.27 1.50558 135.189 1.36871 136.835 1.36871C137.383 1.36871 137.794 1.50558 138.206 1.9162C138.617 2.18994 138.754 2.60056 138.754 3.14804C138.754 3.69553 138.617 3.96927 138.206 4.24302C137.794 4.51676 137.383 4.65363 136.972 4.65363L134.778 4.51676C134.504 4.51676 134.367 4.51676 134.23 4.51676C134.504 6.84357 134.641 9.30726 134.641 11.9078Z" fill="white"/>
  <path d="M144.513 26.5531V32.986C144.513 38.1871 144.924 42.4302 145.61 45.4413L144.924 47.0838H143.279L142.456 46.2626C142.456 44.4832 142.456 42.4302 142.456 40.2402C142.456 38.0503 142.319 33.2598 141.908 26.0056C141.633 18.7514 141.359 13.2765 141.359 9.71787C141.359 7.80167 142.045 6.84357 143.279 6.84357C145.335 6.84357 147.118 7.39105 148.489 8.48602C149.86 9.581 150.683 11.0866 150.683 13.1397V17.3827C150.683 18.4776 150.408 19.5726 149.997 20.5307C149.586 21.4888 149.037 22.4469 148.489 23.5419C147.94 24.6369 147.666 25.1843 147.529 25.3212C147.803 26.2793 148.078 28.1955 148.626 31.0698C149.86 37.229 151.094 41.7458 152.465 44.4832C152.876 45.3045 153.013 45.8519 153.013 46.2626C153.013 46.6732 152.876 47.0838 152.602 47.3575C152.328 47.6313 152.054 47.7681 151.642 47.7681C150.82 47.7681 149.997 46.81 149.174 44.8938C148.352 42.9776 147.803 40.7877 147.255 38.4609C145.884 31.3436 144.924 27.3743 144.65 26.6899H144.513V26.5531ZM144.787 9.03351L144.65 9.85474C144.65 11.4972 144.65 13.824 144.787 16.9721C144.924 20.1201 144.924 22.31 144.924 23.6788C145.884 23.1313 146.569 21.8994 147.255 19.8464C147.803 17.7933 148.078 16.2877 148.078 15.1927C148.078 14.0978 148.078 13.2765 147.94 12.729C147.803 12.1816 147.803 11.6341 147.529 11.0866C146.981 9.71787 146.158 9.03351 144.787 9.03351Z" fill="white"/>
  <path d="M168.644 34.4916L169.329 38.1871C169.329 38.7346 169.466 39.8296 169.878 41.7458C170.289 43.662 170.426 44.8938 170.426 45.4413C170.426 46.2626 170.152 46.9469 169.466 47.0838C168.644 47.0838 167.958 46.9469 167.547 46.6732C167.136 46.3994 166.861 45.8519 166.861 45.0307C166.861 43.3883 166.587 40.9246 166.039 37.6397L160.143 36.8184C159.732 38.1871 159.458 39.5559 159.32 41.1983C159.183 42.8408 158.909 43.9357 158.772 44.6201C158.361 46.1257 157.812 46.81 156.852 46.81C156.441 46.81 155.893 46.6732 155.619 46.3994C155.207 46.1257 155.07 45.7151 155.07 45.3045L155.207 44.757C157.949 34.3547 159.869 24.3631 161.24 14.5084C161.24 14.2346 161.377 13.4134 161.377 12.1816C161.514 9.30725 161.926 7.39105 162.474 6.56982H164.531C165.079 6.56982 165.49 6.7067 165.902 6.98044C166.313 7.25418 166.45 7.6648 166.45 8.07541C166.45 11.0866 166.861 15.6033 167.684 21.6257C168.233 27.5112 168.644 31.7542 168.644 34.4916ZM165.49 35.5866C165.353 35.0391 165.353 33.9441 165.353 32.5754C165.353 31.0698 165.216 29.2905 165.079 27.2374C164.942 25.0475 164.668 22.5838 164.393 19.7095C164.119 16.8352 163.845 14.7821 163.708 13.5503C161.926 23.5419 160.692 30.6592 160.143 34.7654C160.829 35.176 162.611 35.4497 165.49 35.5866Z" fill="white"/>
  <path d="M174.128 20.8045V15.0559C174.128 12.5922 173.991 10.8128 173.717 9.581C173.991 8.21228 174.54 7.52792 175.362 7.52792H177.967C180.298 7.52792 181.943 8.48602 182.766 10.4022C183.589 12.0447 184 14.0978 184 16.2877C184 19.0251 184 20.8045 183.863 21.3519C183.726 22.0363 183.589 22.5838 183.452 23.1313C183.314 23.6788 183.04 24.0894 182.903 24.5C182.629 24.9106 182.355 25.1844 182.081 25.595C181.669 26.0056 181.395 26.4162 180.847 26.6899C179.887 27.3743 178.653 27.9218 177.282 28.3324V34.7654L177.693 46.1257C177.693 46.6732 177.556 47.0838 177.145 47.3575C176.733 47.6313 176.322 47.905 175.773 47.905L174.54 47.2207C173.991 45.0307 173.854 42.1564 173.854 38.4609L174.128 27.7849C173.854 27.2374 173.717 26.8268 173.717 26.2793V26.1425C173.854 25.0475 174.128 23.405 174.128 20.8045ZM177.007 14.0978L177.145 25.7318V25.8687C179.475 25.595 180.709 22.1732 180.709 15.7402C180.709 13.824 180.435 12.5922 180.024 11.9078C179.475 11.2235 178.79 10.8128 177.693 10.8128C177.693 10.8128 177.419 10.676 177.007 10.676V14.0978Z" fill="white"/>
  <path d="M35.3741 25.4581C35.3741 25.4581 38.2534 25.4581 38.2534 24.5C38.2534 23.5419 35.3741 23.5419 35.3741 23.5419C35.3741 23.5419 41.1326 19.0251 41.9553 17.5196C41.9553 17.5196 38.1162 16.1508 34.4143 21.2151C34.4143 21.2151 39.2131 8.62291 34.1401 0.958101C34.1401 0.958101 29.2042 6.84358 31.9464 20.6676C31.9464 20.6676 23.4456 3.01117 12.614 0C12.614 0 13.1625 14.0978 30.1639 22.4469C30.1639 22.4469 12.4769 13.5503 0.137115 24.5C12.4769 35.4497 30.1639 26.5531 30.1639 26.5531C13.1625 34.7654 12.614 49 12.614 49C23.4456 45.852 31.9464 28.3324 31.9464 28.3324C29.2042 42.2933 34.1401 48.0419 34.1401 48.0419C39.2131 40.2402 34.4143 27.7849 34.4143 27.7849C38.1162 32.986 41.9553 31.4804 41.9553 31.4804C41.1326 29.9749 35.3741 25.4581 35.3741 25.4581ZM17.8241 6.98045C21.8003 10.1285 27.0104 17.9302 27.0104 17.9302C23.1714 15.0559 17.8241 6.98045 17.8241 6.98045ZM3.97616 24.5C3.97616 24.5 20.4292 22.7207 28.3815 24.5C28.3815 24.5 12.3398 26.1425 3.97616 24.5ZM17.8241 42.0196C17.8241 42.0196 23.1714 33.9441 27.0104 31.0698C27.0104 31.0698 21.8003 38.8715 17.8241 42.0196ZM33.4546 42.7039C33.4546 42.7039 32.2206 34.6285 32.9061 30.2486C32.9061 30.3855 34.2772 38.5978 33.4546 42.7039ZM32.9061 18.067C32.2206 13.6872 33.4546 5.61173 33.4546 5.61173C34.2772 9.71788 32.9061 18.067 32.9061 18.067Z" fill="#4A9B57"/>
</svg>
