<svg width="190" height="160" viewBox="0 0 190 160" fill="none" xmlns="http://www.w3.org/2000/svg">
<mask id="mask0" style="mask-type:alpha" maskUnits="userSpaceOnUse" x="0" y="0" width="190" height="160">
<rect width="190" height="160" fill="#C4C4C4"/>
</mask>
<g mask="url(#mask0)">
<path d="M92.9 339.5C93 339.5 93 339.5 92.9 339.5C93 339.5 93 339.5 92.9 339.5ZM92.9 339.5C93 339.5 93 339.5 92.9 339.5ZM92.9 339.5C93 339.5 93 339.5 92.9 339.5ZM109.4 337.9C109.4 337.9 109.5 337.9 109.4 337.9C109.5 338 109.5 338 109.4 337.9ZM109.4 337.9C109.5 338 109.5 338 109.4 337.9ZM109.4 337.9C109.5 338 109.5 337.9 109.4 337.9ZM183.7 49.8C183.4 49.8 181.5 50.9 179.7 52.1L182.4 43.6L179.3 42.7C179.2 42.9 178.8 44.4 178.1 46.6C176.7 47.4 174.8 54.7 174.8 54.7C174.5 54.9 171.1 56.5 169.8 60.6C168.7 64.2 168.4 65.4 168.4 65.4L154.7 94.2L138.6 87.7L139.2 85.9C130.6 81.5 124.6 78.9 119.9 75.9C105.4 66.6 101.5 68.6 98.1 68.2C97.9 68.2 97.8 68.3 97.6 68.3C97.6 66.4 97.6 64 97.5 62.4V60.5C97.7 60.5 105.3 59.2 105.4 51.5C105.4 49.5 105.4 46.9 105.2 44C106.1 43.6 106.9 43 107.4 42.1C108 41.2 108.2 40.1 108.2 39C108.2 38.1 108.2 37.2 108.2 36.3V36H107.9C106.8 36 105.7 36 104.7 36C104.5 33.4 104.4 31.1 104.3 29.3C105.3 28.5 105.9 27.2 105.7 25.9C105.5 24.6 104.1 23.5 102.8 23.8C104.6 23.6 105.9 21.6 105.3 19.9C104.7 18.2 102.3 17.5 100.9 18.5C101.7 17.6 102.6 16.7 103 15.6C103.4 14.5 103.2 13 102.2 12.3C101.2 11.6 99.9 11.8 98.8 12.3C97.2 13.1 96 14.6 94.3 15.3C92.7 16.2 90.8 16 89 16.2C87 16.4 85 17.1 83.5 18.5C82 19.9 81.1 21.9 81.3 23.9C78.7 23.7 75.9 23.9 74 25.6C72.4 27 71.8 29.4 71.9 31.5C72 33.7 73 35.7 73.8 37.7C73.8 37.8 73.9 37.9 73.9 38.1C72.3 38.5 70.1 39.8 70.7 44.1C71 46.4 72 47.5 73.1 48C73.1 48.3 73.2 48.7 73.4 49C73.7 49.4 74.2 49.6 74.6 49.6C75 49.6 75.4 49.4 75.6 49.1C76 48.6 75.9 48.2 75.9 48.2C75.8 48.2 75.8 48.5 75.4 48.8C75 49.1 74.3 49.2 73.9 48.6C73.8 48.4 73.7 48.3 73.7 48.1C74.8 48.4 76.1 48.2 76.9 47.9L78.4 68.6C78.3 68.6 78.1 68.5 78 68.5C72.7 68.7 69.8 69.6 66.5 71.6C61.7 74.6 57.9 78.8 55.2 83.8L43.8 103.6L45.6 105.3C43.9 107.6 42.7 108.9 42.6 108.3C39.9 97.2 39.3 85.7 39.2 77.5C39.2 76.5 39.3 74.2 39.3 73.5C39.3 71.9 39 70.7 38.7 69.9L48.2 66C49 65.7 49.3 64.8 49 64.1L40.8 44.3C40.5 43.5 39.6 43.2 38.9 43.5L7.89995 56.2C7.09995 56.5 6.79995 57.4 7.09995 58.1L15.3 78C15.6 78.8 16.5 79.1 17.2 78.8L24 76C24 76.2 24 76.2 24 76.2H24.1C23.8 91.5 26.1 119.9 36.4 127C34.8 125.9 33.5 124.5 32.6 123.2C31.6 121.8 31 120.5 30.6 119.6C30.2 118.7 30 118.2 30 118.2C30 118.2 30.1 118.7 30.5 119.7C30.9 120.6 31.4 121.9 32.4 123.4C33.4 124.9 34.8 126.5 36.8 127.8C38.8 129.1 41.4 130 44.2 129.6C47 129.3 49.3 127.9 51.1 126.4C52.8 125 54 123.5 55 122.2C56.6 120.9 58.1 119.4 59.4 118L63.2 121.6L66.1 117.2C66.1 117.2 65.9 125.1 66 123.8L65.1 161H67.7L67.9 172.9L71.3 337.4L73.6 337.3L73.7 343.5C73.5 343.5 73.4 343.5 73.4 343.5C73.4 343.5 73.5 343.5 73.7 343.5V343.9C78 344.2 84.8 344.3 90.9 344.2C96.3 344.2 101.3 344 103.1 343.6C103.5 343.5 103.8 343.4 103.9 343.4C104 343.3 104 343.1 103.8 343C103.5 342.5 102.2 342 100.5 341.5C99.7 341.3 99.2 341.1 99.2 341.1C99.2 341.1 99.2 341.1 99.1 341.1C99.2 341 99.3 340.9 99.3 340.9C99.3 340.9 99.2 340.9 99 341.1C96.9 340.5 94.7 340 93.3 339.7C93.3 339.7 93.3 339.7 93.2 339.7C93.4 339.7 93.7 339.7 94 339.6C94.4 339.6 94.8 339.5 95.2 339.3C95.4 339.2 95.7 339.2 95.9 339C96 338.9 96.1 338.8 96.2 338.6C96.2 338.5 96.2 338.3 96.1 338.2C99.2 339.4 102.7 340.7 105.9 341.8C111 343.6 115.8 345.2 117.6 345.3C118 345.4 118.3 345.4 118.4 345.3C118.5 345.2 118.5 345.1 118.5 344.9C118.4 344.4 117.3 343.4 115.9 342.3C115.3 341.8 114.8 341.5 114.8 341.5C114.8 341.5 114.8 341.5 114.7 341.5C114.9 341.4 115 341.4 114.9 341.4C114.9 341.4 114.8 341.4 114.5 341.4C112.8 340.2 110.8 338.9 109.6 338.1C109.6 338.1 109.6 338.1 109.5 338.1C109.7 338.2 110 338.3 110.3 338.3C110.6 338.4 111.1 338.4 111.5 338.4C111.7 338.4 112 338.4 112.3 338.4C112.4 338.4 112.6 338.3 112.7 338.2C112.8 338.1 112.8 337.8 112.7 337.7C111.8 336.8 110.6 337 110 337.4C109.9 337.5 109.9 337.5 109.8 337.6C109.8 337.5 109.8 337.5 109.9 337.4C110 337.2 110 336.8 109.9 336.5C109.8 336.2 109.7 335.8 109.2 335.6C109 335.6 108.9 335.7 108.8 335.8V335.7L109.3 334.2L111.1 334.7C111.1 334.7 137 281.4 142.6 258.7C147 241 124.2 169.9 121.3 161H123.7L118.7 128.7L116.1 105.3C116 104 115.9 102.5 115.8 101C115.8 100.8 115.8 100.7 115.8 100.5L131.3 108.2L131.8 106.8C137.1 108.5 144.1 110.6 150.4 112.4C158.6 114.7 167 109.8 169.1 101.6L178.4 68.9H178.3L178.5 68.6L178.4 68.9C178.4 68.9 183.1 64.6 183.5 62.1C183.7 61.3 184.2 49.9 183.7 49.8ZM50.6 126.1C48.8 127.5 46.6 128.9 44 129.2C41.4 129.5 38.9 128.7 36.9 127.5C36.7 127.4 36.6 127.3 36.5 127.2C39.3 129 42.6 129.4 46.6 127.5C49.2 126.3 51.4 124.9 53.5 123.4C52.7 124.3 51.7 125.2 50.6 126.1ZM107.8 36.7C107.8 37.5 107.8 38.3 107.8 39.2C108 41.2 106.8 43 105.3 43.7C105.2 41.4 105.1 39 104.9 36.7C105.8 36.7 106.8 36.7 107.8 36.7ZM93.1 339.2C93.1 339.3 93 339.4 93 339.5C93 339.5 93 339.5 92.9 339.5C92.8 339.4 92.6 339.3 92.4 339C92.2 338.8 92.1 338.6 91.9 338.3C91.7 338.1 91.6 337.6 91.9 337.6C92.2 337.6 92.5 337.8 92.7 338.1C92.9 338.3 93 338.6 93 338.8C93.1 338.9 93.1 339 93.1 339.2ZM92.4 339C92.6 339.2 92.8 339.3 92.9 339.4H92.8C92.1 339.2 91.6 339.1 91.6 339.1V338.5H91.7C91.7 338.5 91.7 338.5 91.6 338.5V337.8C91.6 338 91.7 338.1 91.8 338.3C92 338.6 92.2 338.9 92.4 339ZM95.8 338.7C95.6 338.8 95.4 338.9 95.2 339C94.8 339.2 94.4 339.3 94 339.3C93.7 339.4 93.4 339.4 93.2 339.4C93.2 339.4 93.2 339.3 93.2 339.2C93.3 339.1 93.4 338.9 93.5 338.8C93.7 338.5 94 338.3 94.5 338.1C94.9 338 95.5 337.9 95.9 338.2C96.1 338.3 96 338.6 95.8 338.7ZM93.4 338.7C93.3 338.8 93.3 338.9 93.3 338.9C93.3 338.8 93.3 338.8 93.3 338.7C93.3 338.4 93.2 338.1 93 337.9C92.8 337.6 92.5 337.3 92 337.3C91.8 337.3 91.7 337.5 91.7 337.6V337.5V336.7H92.6C93.5 337.1 94.5 337.5 95.5 337.8C94.5 337.7 93.7 338.2 93.4 338.7ZM110.2 337.5C110.5 337.3 110.9 337.2 111.3 337.2C111.7 337.2 112.3 337.4 112.6 337.7C112.7 337.9 112.6 338.1 112.4 338.1C112.2 338.2 111.9 338.1 111.7 338.2C111.2 338.2 110.8 338.2 110.5 338.1C110.2 338 109.9 338 109.7 337.9C109.7 337.9 109.8 337.8 109.8 337.7C109.9 337.7 110 337.6 110.2 337.5ZM109.2 335.8C109.5 335.9 109.7 336.2 109.8 336.5C109.9 336.8 109.9 337.1 109.9 337.3C109.9 337.5 109.8 337.6 109.8 337.7C109.7 337.8 109.7 337.9 109.6 337.9C109.6 337.9 109.6 337.9 109.5 337.9C109.4 337.8 109.3 337.6 109.2 337.3C109.1 337.1 109 336.8 109 336.5C108.9 336.2 108.9 335.7 109.2 335.8ZM108.7 336.5C108.8 336.8 108.9 337.1 109 337.3C109.1 337.6 109.3 337.8 109.4 337.9H109.3C108.7 337.5 108.3 337.3 108.3 337.3L108.5 336.8H108.6C108.6 336.8 108.6 336.8 108.5 336.7L108.7 336.1C108.7 336.2 108.7 336.3 108.7 336.5ZM97.4 303.6C97.4 301.8 97.4 300.2 97.3 298.8C97.3 296.9 97.2 295.3 97.2 294.1C97.2 293.7 97.2 293.3 97.2 293.1C97.1 251.8 98.7 192.8 99.2 185C99.2 185 115.2 246.3 115.3 251.1C115.5 254 104.4 282 97.4 303.6Z" stroke="white" stroke-width="10" stroke-miterlimit="10" stroke-linecap="round" stroke-linejoin="round"/>
<path d="M39.1 72.2C39.1 80 39.2 94.5 42.5 108.3C43.1 110.8 60.6 81.8 60.6 81.8L69.2 100.3C69.2 100.3 64.3 119.2 46.5 127.5C25.2 137.3 22.8 85.2 24.3 70.3" fill="#FFBE9D"/>
<path d="M179.2 54.4L179 54.7L171.4 67.7L177.4 70.7L182.1 63.5" fill="#FFBE9D"/>
<path d="M123.8 104.3C123.8 104.3 138.5 109.1 150.6 112.5C158.8 114.8 167.2 109.9 169.3 101.7L178.6 69L168.4 65.5L154.7 94.3L130.5 84.5" fill="#FFBE9D"/>
<path d="M178.6 52L172 67.4L168.3 65.5C168.3 65.5 168.6 64.2 169.7 60.7C171 56.6 174.4 54.9 174.7 54.8C174.7 54.8 177 46 178.3 46.6C179.6 47.2 178.6 52 178.6 52Z" fill="#FFBE9D"/>
<path d="M179.3 42.8C179 43.5 171.4 69.3 171.4 69.3L174.2 69.7L182.5 43.6L179.3 42.8Z" fill="#424242"/>
<path d="M178.6 69C178.6 69 183.3 64.7 183.7 62.2C183.8 61.3 184.3 49.9 183.8 49.8C183.2 49.7 175.9 54.3 176.9 55.5C177.9 56.7 179.4 55.8 179.4 55.8C179.4 55.8 174.7 58.5 175.7 59.4C176.8 60.3 179.6 58.7 179.6 58.7C179.6 58.7 173.6 61.5 174.8 62.9C176.1 64.3 181.1 62.1 181.1 62.1L178.6 69Z" fill="#FFBE9D"/>
<path d="M182.9 53.4C183 53.5 181.7 54.5 180 55.5C179.6 55.8 179.2 56 178.7 56.2C178.3 56.4 177.8 56.3 177.5 56.2C176.8 56 176.6 55.5 176.6 55.5C176.7 55.4 177 55.7 177.6 55.8C177.9 55.8 178.2 55.8 178.6 55.7C179 55.6 179.3 55.3 179.8 55C181.4 54 182.8 53.3 182.9 53.4Z" fill="#EB996E"/>
<path d="M183.1 56.5C183.2 56.6 180.8 58.4 177.5 59.9C177.1 60.1 176.6 60.3 176.1 60.2C175.8 60.1 175.6 59.9 175.5 59.6C175.4 59.3 175.5 59 175.6 58.8C175.8 58.4 176.1 58.1 176.3 57.9C176.5 57.6 176.8 57.4 177 57.2C177.9 56.4 178.6 56.2 178.7 56.2C178.7 56.3 178.1 56.7 177.3 57.5C177.1 57.7 176.9 57.9 176.6 58.2C176.4 58.5 176.1 58.7 176 59C175.9 59.3 176 59.6 176.3 59.6C176.6 59.7 177 59.5 177.4 59.3C180.5 57.9 183 56.4 183.1 56.5Z" fill="#EB996E"/>
<path d="M182.3 60.3C182.3 60.4 181.6 60.8 180.5 61.3C179.9 61.6 179.2 61.9 178.5 62.3C178.1 62.5 177.7 62.7 177.3 62.9C176.9 63.1 176.5 63.3 175.9 63.4C175.6 63.4 175.3 63.4 175 63.3C174.7 63.2 174.5 62.9 174.4 62.6C174.3 62 174.5 61.5 174.9 61.2C175.2 60.9 175.6 60.7 176 60.5C176.3 60.3 176.6 60.2 176.9 60C178 59.4 178.8 59 178.8 59.1C178.8 59.2 178.2 59.6 177.1 60.3C176.8 60.5 176.5 60.7 176.2 60.9C175.9 61.1 175.5 61.3 175.3 61.6C175 61.9 174.9 62.2 175 62.6C175.1 62.9 175.5 63.1 175.9 63C176.3 62.9 176.7 62.7 177.2 62.5C177.6 62.3 178 62.1 178.4 62C179.1 61.7 179.8 61.4 180.5 61.1C181.6 60.5 182.3 60.2 182.3 60.3Z" fill="#EB996E"/>
<path d="M78.8 72.9L97.6 71.4C97.7 69.2 97.6 60.7 97.6 60.7C97.6 60.7 105.4 59.5 105.5 51.7C105.6 43.9 104.2 25.9 104.2 25.9C95.1 22 84.7 23.3 76.9 29.3L75.7 30.2L78.8 72.9Z" fill="#FFBE9D"/>
<path d="M102.4 39.9C101.9 39.5 101.9 38.8 102.3 38.3C102.7 37.8 103.4 37.8 103.9 38.2C104.4 38.6 104.4 39.3 104 39.8C103.6 40.2 102.9 40.3 102.4 39.9Z" fill="#424242"/>
<path d="M104.3 38.1C104.2 38.2 103.4 37.6 102.3 37.6C101.2 37.6 100.4 38.2 100.3 38C100.2 37.9 100.4 37.7 100.7 37.4C101 37.1 101.6 36.9 102.3 36.9C103 36.9 103.5 37.2 103.9 37.4C104.2 37.8 104.3 38 104.3 38.1Z" fill="#424242"/>
<path d="M91.9 38.5C92.4 38.8 92.6 39.5 92.3 40.1C92 40.6 91.3 40.8 90.7 40.5C90.2 40.2 90 39.5 90.3 38.9C90.6 38.4 91.3 38.2 91.9 38.5Z" fill="#424242"/>
<path d="M92.6 38.5C92.5 38.6 91.7 38 90.6 38C89.5 38 88.7 38.6 88.6 38.4C88.5 38.3 88.7 38.1 89 37.8C89.3 37.5 89.9 37.3 90.6 37.3C91.3 37.3 91.8 37.6 92.2 37.8C92.5 38.2 92.6 38.5 92.6 38.5Z" fill="#424242"/>
<path d="M96.8999 47.4C96.8999 47.3 97.5999 47.2 98.5999 47C98.8999 47 99.0999 46.9 99.0999 46.8C99.1999 46.6 98.9999 46.3 98.8999 46C98.5999 45.3 98.2999 44.6 97.9999 43.8C96.7999 40.7 95.9999 38.1 96.1999 38C96.3999 37.9 97.3999 40.4 98.5999 43.5C98.8999 44.3 99.0999 45 99.3999 45.7C99.4999 46 99.6999 46.4 99.5999 46.9C99.4999 47.1 99.2999 47.3 99.0999 47.3C98.8999 47.4 98.7999 47.4 98.5999 47.4C97.5999 47.5 96.8999 47.5 96.8999 47.4Z" fill="#424242"/>
<path d="M97.4999 60.6C97.4999 60.6 92.5999 61 87.2999 57.7C87.2999 57.7 89.6999 63.3 97.4999 62.6V60.6Z" fill="#EB996E"/>
<path d="M102.9 24C104.7 23.8 106 21.8 105.4 20.1C104.8 18.4 102.4 17.7 101 18.7C101.8 17.8 102.7 16.9 103.1 15.8C103.5 14.7 103.3 13.2 102.3 12.5C101.4 11.8 100 12 98.9 12.5C97.3 13.3 96.1 14.8 94.4 15.5C92.7 16.2 90.8 16 89 16.2C87 16.4 85 17.1 83.5 18.5C82 19.9 81.1 21.9 81.3 23.9C78.7 23.7 75.9 23.9 74 25.6C72.4 27 71.8 29.4 71.9 31.5C72 33.7 73 35.7 73.8 37.7C74.3 38.9 74.7 39.3 74.7 39.3L76 44.8L79.5 44.5L78.6 32.9C78.6 32.9 77.9 28 82.2 28.2C86.4 28.4 92.5 32.8 100.6 31.1C101.9 30.8 103.3 30.6 104.4 29.8C105.5 29 106.2 27.6 105.9 26.3C105.6 24.8 104.2 23.7 102.9 24Z" fill="#424242"/>
<path d="M75.7 37.8C75.5 37.7 69.9 37.4 70.8 44C71.7 50.6 78.1 47.5 78.1 47.3C78.1 47.1 75.7 37.8 75.7 37.8Z" fill="#FFBE9D"/>
<path d="M75.7 45.2C75.7 45.2 75.6 45.3 75.4 45.4C75.2 45.5 74.9 45.6 74.5 45.5C73.8 45.3 73 44.3 72.8 43.1C72.7 42.5 72.7 41.9 72.9 41.4C73 40.9 73.3 40.5 73.6 40.4C73.9 40.3 74.2 40.4 74.3 40.6C74.4 40.8 74.4 40.9 74.4 40.9C74.4 40.9 74.5 40.8 74.4 40.5C74.4 40.4 74.3 40.2 74.1 40.1C73.9 40 73.7 40 73.4 40C72.9 40.1 72.5 40.6 72.3 41.2C72.1 41.8 72 42.4 72.2 43.1C72.4 44.4 73.3 45.6 74.3 45.7C74.8 45.8 75.1 45.6 75.3 45.4C75.7 45.4 75.8 45.2 75.7 45.2Z" fill="#EB996E"/>
<path d="M139.2 86.1C130.6 81.7 124.6 79.1 119.9 76.1C105.4 66.8 101.5 68.8 98.0999 68.4C91.3999 70.5 84.6999 70.5 78.0999 68.4C72.7999 68.6 69.8999 69.5 66.5999 71.5C61.7999 74.5 57.9999 78.7 55.2999 83.7L43.7999 103.6L63.1999 121.6L66.0999 117.2C66.0999 117.2 65.8999 125.1 65.9999 123.8L65.0999 161H123.8L118.8 128.7L115.7 100.5L131.4 108.3L139.2 86.1Z" fill="#61CD72"/>
<path d="M39.1 78L24 76.2C24 76.2 23.5 64.2 25.7 63.7C25.7 63.7 27 63.8 26.9 64.7C26.9 64.7 27.5 62.9 28.9 63.2C30.3 63.5 30.1 65.3 30.1 65.3C30.1 65.3 31.6 52.2 33.4 52.5C35 52.8 34.5 54.1 33.5 62.8C33.5 62.8 33.2 66.9 34 66.2C34.8 65.4 37.1 57.4 38.1 55.5C38.6 54.5 40.1 55.7 39.4 58.2C38.9 60.3 37.4 66 37.6 67.1C37.6 67.1 37.8 67.7 38 68C38.4 68.5 39.5 70.1 39.5 73.3C39.3 74.4 39.1 78 39.1 78Z" fill="#FFBE9D"/>
<path d="M49 64C49.3 64.8 49 65.6 48.2 65.9L37.4 70.4L36.9 70.6L36.1 70.9L35.8 71C35.4 70.5 34.8 69.9 34.1 69.4C33.6 69 33 68.7 32.4 68.5C32.1 68.4 31.8 68.3 31.5 68.4C31.3 68.5 31.1 68.7 31.1 69C31.1 69.5 31.4 70.1 31.7 70.6C32 71.1 32.3 71.6 32.6 72.1C32.6 72.2 32.7 72.2 32.7 72.3L32.3 72.5L17.4 78.7C16.6 79 15.8 78.7 15.5 77.9L7.09995 58.1C6.79995 57.3 7.09995 56.5 7.89995 56.2L38.8 43.3C39.6 43 40.4 43.3 40.7 44.1L49 64Z" fill="white"/>
<path d="M19.1838 54.4514L9.85339 58.3186L13.7207 67.649L23.0511 63.7817L19.1838 54.4514Z" fill="#424242"/>
<path d="M17.2999 76L44.7999 64.5" stroke="#424242" stroke-miterlimit="10"/>
<path d="M24.6 53.4L38.3 47.7" stroke="#424242" stroke-miterlimit="10"/>
<path d="M25.7 56.2L39.4 50.5" stroke="#424242" stroke-miterlimit="10"/>
<path d="M26.7 58.8L40.4 53.1" stroke="#424242" stroke-miterlimit="10"/>
<path d="M27.7999 61.7L41.4999 56" stroke="#424242" stroke-miterlimit="10"/>
<path d="M15.2 70.8L42.5999 59.3" stroke="#424242" stroke-miterlimit="10"/>
<path d="M16.2 73.3L43.7 61.8" stroke="#424242" stroke-miterlimit="10"/>
<path d="M35.7 71.1L32.6 72.4C32.6 72.3 32.5 72.3 32.5 72.2C32.2 71.7 31.9 71.2 31.6 70.7C31.3 70.2 31 69.6 31 69.1C31 68.8 31.2 68.5 31.4 68.5C31.6 68.4 32 68.5 32.3 68.6C32.9 68.9 33.5 69.2 34 69.5C34.7 70 35.3 70.6 35.7 71.1Z" fill="#FFBE9D"/>
<path d="M36.1 76.5C36.1 76.5 35.2 76 34 74.8C33.4 74.2 32.8 73.4 32.1 72.5C31.8 72 31.5 71.5 31.2 71C30.9 70.5 30.5 69.9 30.6 69.1C30.6 68.7 30.9 68.2 31.4 68C31.9 67.9 32.3 68 32.6 68.1C33.3 68.4 33.8 68.7 34.4 69.1C35.4 69.9 36.1 70.7 36.6 71.5H36.3C36.6 70.9 37 70.6 37.3 70.4C37.6 70.2 37.8 70.1 37.8 70.2C37.9 70.3 37.2 70.6 36.7 71.7L36.6 72L36.4 71.8C35.7 71 35 70.2 34 69.5C33.5 69.2 32.9 68.8 32.3 68.6C32 68.5 31.7 68.4 31.4 68.5C31.2 68.6 31 68.8 31 69.1C31 69.6 31.3 70.2 31.6 70.7C31.9 71.2 32.2 71.7 32.5 72.2C33.1 73.1 33.7 73.9 34.2 74.5C35.3 75.8 36.1 76.4 36.1 76.5Z" fill="#EB996E"/>
<path d="M37.5999 70.1C37.5999 70.1 37.4999 70.2 37.2999 70.4C37.0999 70.6 36.6999 71 36.3999 71.7L36.2999 72L36.0999 71.8C35.9999 71.6 35.7999 71.4 35.5999 71.2C35.1999 70.7 34.5999 70.1 33.8999 69.6C33.3999 69.2 32.7999 68.9 32.1999 68.7C31.8999 68.6 31.5999 68.5 31.2999 68.6C31.0999 68.7 30.8999 68.9 30.8999 69.2C30.8999 69.7 31.1999 70.3 31.4999 70.8C31.7999 71.3 32.0999 71.8 32.3999 72.3C32.3999 72.4 32.4999 72.4 32.4999 72.5C33.0999 73.3 33.5999 74.1 34.0999 74.6C35.1999 75.9 35.9999 76.5 35.9999 76.6C35.9999 76.6 35.0999 76.1 33.8999 74.9C33.2999 74.3 32.6999 73.6 32.0999 72.7L31.9999 72.6C31.6999 72.1 31.3999 71.6 31.0999 71.1C30.7999 70.6 30.3999 70 30.4999 69.2C30.4999 68.8 30.7999 68.3 31.2999 68.1C31.7999 67.9 32.1999 68.1 32.4999 68.2C33.1999 68.5 33.7999 68.8 34.2999 69.2C35.0999 69.8 35.6999 70.4 36.0999 71C36.1999 71.1 36.2999 71.2 36.2999 71.3C36.4999 71 36.6999 70.8 36.8999 70.6C36.9999 70.5 37.0999 70.5 37.1999 70.4C37.3999 70.2 37.5999 70.1 37.5999 70.1Z" fill="#EB996E"/>
<path d="M35.7999 77.6C35.7999 77.7 35.1999 77.5 34.3999 77.5C33.9999 77.5 33.3999 77.6 32.9999 77.8C32.4999 78.1 32.0999 78.5 31.7999 79.1L31.4999 79.8L31.2999 79.1C31.1999 78.9 31.1999 78.7 31.0999 78.5C30.5999 77.1 29.5999 76 28.7999 75.4C27.9999 74.8 27.3999 74.6 27.3999 74.5C27.3999 74.4 28.0999 74.5 28.9999 75.1C29.8999 75.7 30.9999 76.8 31.4999 78.3C31.5999 78.5 31.5999 78.7 31.6999 78.9H31.1999C31.4999 78.2 32.0999 77.6 32.6999 77.3C33.2999 77 33.8999 77 34.3999 77C35.2999 77.2 35.7999 77.6 35.7999 77.6Z" fill="#EB996E"/>
<path d="M92.6 33.7C92.4 34.1 91.2 33.8 89.8 33.8C88.4 33.8 87.2 34.1 87 33.8C86.9 33.6 87.1 33.3 87.6 32.9C88.1 32.6 88.9 32.3 89.8 32.3C90.7 32.3 91.5 32.6 92 32.9C92.5 33.2 92.7 33.5 92.6 33.7Z" fill="#424242"/>
<path d="M103.1 34.4C102.9 34.8 102.2 34.8 101.5 34.9C100.8 35 100.1 35.1 99.7999 34.9C99.6999 34.7 99.6999 34.4 99.8999 34.1C100.1 33.8 100.6 33.5 101.3 33.4C101.9 33.3 102.5 33.5 102.8 33.7C103.1 33.9 103.2 34.2 103.1 34.4Z" fill="#424242"/>
<path d="M85.9 39.7C85.9 39.7 85.8 39.4 85.8 38.9C85.8 38.3 85.8 37.5 85.7 36.5V36.3H85.9C88.2 36.2 91.5 36.2 95.4 36.2H95.7V36.5C95.7 37.4 95.7 38.3 95.7 39.2C95.7 40.3 95.5 41.4 94.9 42.3C94.3 43.2 93.5 43.9 92.6 44.3C90.8 45.1 88.9 44.6 87.7 43.7C86.5 42.8 86 41.7 85.9 40.9C85.8 40.5 85.8 40.2 85.8 40C85.8 39.8 85.8 39.7 85.9 39.7C86 39.7 85.9 40.1 86.2 40.9C86.4 41.6 86.9 42.7 88 43.4C89.1 44.2 90.8 44.5 92.5 43.8C94.1 43.1 95.4 41.3 95.2 39.2C95.2 38.3 95.2 37.4 95.2 36.5L95.5 36.8C91.6 36.8 88.2 36.8 86 36.7L86.2 36.5C86.2 37.4 86.1 38.2 86.1 38.9C85.9 39.4 85.9 39.7 85.9 39.7Z" fill="#424242"/>
<path d="M98.4999 39.7C98.4999 39.7 98.3999 39.4 98.3999 38.9C98.3999 38.3 98.3999 37.5 98.2999 36.5V36.3H98.4999C100.8 36.2 104.1 36.2 108 36.2H108.3V36.5C108.3 37.4 108.3 38.3 108.3 39.2C108.3 40.3 108.1 41.4 107.5 42.3C106.9 43.2 106.1 43.9 105.2 44.3C103.4 45.1 101.5 44.6 100.3 43.7C99.0999 42.8 98.5999 41.7 98.4999 40.9C98.3999 40.5 98.3999 40.2 98.3999 40C98.4999 39.8 98.4999 39.7 98.4999 39.7C98.5999 39.7 98.4999 40.1 98.7999 40.9C98.9999 41.6 99.4999 42.7 100.6 43.4C101.7 44.2 103.4 44.5 105.1 43.8C106.7 43.1 108 41.3 107.8 39.2C107.8 38.3 107.8 37.4 107.8 36.5L108.1 36.8C104.2 36.8 100.8 36.8 98.5999 36.7L98.7999 36.5C98.7999 37.4 98.6999 38.2 98.6999 38.9C98.5999 39.4 98.4999 39.7 98.4999 39.7Z" fill="#424242"/>
<path d="M98.4999 38.9C98.4999 39 97.7999 39.2 96.8999 39.2C95.9999 39.2 95.2999 39.1 95.2999 38.9C95.2999 38.8 95.9999 38.6 96.8999 38.6C97.7999 38.7 98.4999 38.8 98.4999 38.9Z" fill="#424242"/>
<path d="M85.8 37.9C85.8 38 83.2 38.2 80 38.2C76.8 38.2 74.2 38.1 74.2 37.9C74.2 37.8 76.8 37.6 80 37.6C83.2 37.7 85.8 37.8 85.8 37.9Z" fill="#424242"/>
<path d="M97.9999 50.2C97.9999 50.3 97.6999 50.4 97.1999 50.5C96.6999 50.6 95.8999 50.5 95.0999 50.2C94.2999 49.9 93.6999 49.3 93.3999 48.9C92.9999 48.4 92.8999 48.1 92.9999 48C93.0999 47.9 93.8999 49 95.2999 49.6C96.6999 50.3 97.9999 50.1 97.9999 50.2Z" fill="#424242"/>
<path d="M76 48.1C76.1 48.1 76.1 48.5 75.7 49C75.5 49.2 75.2 49.4 74.7 49.5C74.3 49.5 73.8 49.3 73.5 48.9C73.2 48.5 73.1 48 73.2 47.6C73.3 47.2 73.6 46.9 73.9 46.8C74.4 46.5 74.8 46.7 74.8 46.7C74.8 46.8 74.5 46.8 74.1 47.1C73.7 47.4 73.5 48.1 73.9 48.6C74.3 49.2 75.1 49.1 75.4 48.8C75.9 48.4 76 48.1 76 48.1Z" fill="#424242"/>
<path d="M74.6999 101.7C74.7999 101.7 74.1999 102.9 73.2999 104.7C72.2999 106.5 70.9999 109 69.3999 111.7C67.7999 114.4 66.2999 116.8 65.0999 118.5C63.9999 120.2 63.1999 121.2 63.1999 121.2C63.0999 121.2 63.7999 120.1 64.7999 118.3C65.8999 116.4 67.2999 114 68.8999 111.4C70.3999 108.8 71.7999 106.4 72.9999 104.5C73.8999 102.8 74.5999 101.7 74.6999 101.7Z" fill="#424242"/>
<path d="M116.3 111.5C116.2 111.5 116.2 110.3 116 108.5C115.8 106.5 115.7 103.9 115.5 101.2C115.3 98.3 115.1 95.7 115.1 93.8C115.1 91.9 115.2 90.7 115.2 90.7C115.3 90.7 115.3 91.9 115.5 93.7C115.7 95.7 115.8 98.3 116 101C116.2 103.9 116.4 106.5 116.4 108.4C116.4 110.3 116.3 111.5 116.3 111.5Z" fill="#424242"/>
<path opacity="0.3" d="M77.5999 96.2L65.7999 134.7L65.9999 117.2L77.5999 96.2Z" fill="black"/>
<path opacity="0.3" d="M115.5 97.8C115.5 97.8 129.5 105.6 133.7 101.7L131.4 108.3L115.7 100.5L115.5 97.8Z" fill="black"/>
<path d="M92.3 92.1C92.2 92.1 91.6999 87.2 91.1999 81.1C90.6999 75 90.5 70 90.6 70C90.7 70 91.1999 74.9 91.6999 81C92.1999 87.2 92.4 92.1 92.3 92.1Z" fill="#424242"/>
<path d="M92.9999 72.6C92.9999 72.7 92.6999 72.9 92.6999 73.3C92.6999 73.5 92.6999 73.8 92.8999 74C93.0999 74.2 93.3999 74.3 93.6999 74.2C93.9999 74.1 94.1999 73.9 94.2999 73.6C94.2999 73.3 94.1999 73.1 94.0999 72.9C93.7999 72.5 93.3999 72.5 93.3999 72.5C93.3999 72.4 93.7999 72.3 94.2999 72.7C94.4999 72.9 94.7999 73.3 94.6999 73.7C94.6999 74.2 94.2999 74.6 93.7999 74.8C93.2999 75 92.6999 74.8 92.4999 74.4C92.1999 74 92.1999 73.6 92.2999 73.3C92.4999 72.7 92.9999 72.6 92.9999 72.6Z" fill="#424242"/>
<path d="M93.7 81.6C93.7 81.7 93.4 81.9 93.4 82.3C93.4 82.5 93.4 82.8 93.6 83C93.8 83.2 94.1 83.3 94.4 83.2C94.7 83.1 94.9 82.9 95 82.6C95 82.3 94.9 82.1 94.8 81.9C94.5 81.5 94.1 81.5 94.1 81.5C94.1 81.4 94.5 81.3 95 81.7C95.2 81.9 95.5 82.3 95.4 82.7C95.4 83.2 95 83.6 94.5 83.8C94 84 93.4 83.8 93.2 83.4C92.9 83 92.9 82.6 93 82.3C93.2 81.6 93.7 81.5 93.7 81.6Z" fill="#424242"/>
<path d="M58.4999 117.3C58.4999 117.3 58.1999 117.7 57.4999 118.5C56.8999 119.2 56.0999 120.4 55.0999 121.9C54.0999 123.3 52.6999 125 50.8999 126.5C49.0999 128 46.7999 129.4 43.9999 129.7C41.1999 130 38.5999 129.1 36.5999 127.9C34.5999 126.6 33.1999 125 32.1999 123.5C31.1999 122 30.5999 120.7 30.2999 119.8C29.9999 118.9 29.7999 118.3 29.7999 118.3C29.7999 118.3 29.9999 118.8 30.3999 119.7C30.7999 120.6 31.3999 121.9 32.3999 123.3C33.3999 124.7 34.7999 126.3 36.6999 127.5C38.5999 128.7 41.0999 129.5 43.7999 129.2C46.3999 128.9 48.6999 127.6 50.3999 126.1C52.1999 124.6 53.5999 123.1 54.5999 121.7C55.5999 120.3 56.3999 119.1 57.0999 118.4C57.3999 118 57.6999 117.8 57.8999 117.6C58.2999 117.3 58.4999 117.3 58.4999 117.3Z" fill="#EB996E"/>
</g>
</svg>
